<svg width="80" height="80" viewBox="0 0 80 80" fill="none" xmlns="http://www.w3.org/2000/svg">
<path d="M40 40C34.5 40 29.7917 38.0417 25.875 34.125C21.9583 30.2083 20 25.5 20 20C20 14.5 21.9583 9.79167 25.875 5.875C29.7917 1.95833 34.5 0 40 0C45.5 0 50.2083 1.95833 54.125 5.875C58.0417 9.79167 60 14.5 60 20C60 25.5 58.0417 30.2083 54.125 34.125C50.2083 38.0417 45.5 40 40 40ZM0 70V66C0 63.1667 0.730001 60.5633 2.19 58.19C3.65 55.8167 5.58667 54.0033 8 52.75C13.1667 50.1667 18.4167 48.23 23.75 46.94C29.0833 45.65 34.5 45.0033 40 45C45.5 44.9967 50.9167 45.6433 56.25 46.94C61.5833 48.2367 66.8333 50.1733 72 52.75C74.4167 54 76.355 55.8133 77.815 58.19C79.275 60.5667 80.0033 63.17 80 66V70C80 72.75 79.0217 75.105 77.065 77.065C75.1083 79.025 72.7533 80.0033 70 80H10C7.25 80 4.89667 79.0217 2.94 77.065C0.983332 75.1083 0.00333333 72.7533 0 70ZM10 70H70V66C70 65.0833 69.7717 64.25 69.315 63.5C68.8583 62.75 68.2533 62.1667 67.5 61.75C63 59.5 58.4583 57.8133 53.875 56.69C49.2917 55.5667 44.6667 55.0033 40 55C35.3333 54.9967 30.7083 55.56 26.125 56.69C21.5417 57.82 17 59.5067 12.5 61.75C11.75 62.1667 11.145 62.75 10.685 63.5C10.225 64.25 9.99667 65.0833 10 66V70ZM40 30C42.75 30 45.105 29.0217 47.065 27.065C49.025 25.1083 50.0033 22.7533 50 20C49.9967 17.2467 49.0183 14.8933 47.065 12.94C45.1117 10.9867 42.7567 10.0067 40 10C37.2433 9.99333 34.89 10.9733 32.94 12.94C30.99 14.9067 30.01 17.26 30 20C29.99 22.74 30.97 25.095 32.94 27.065C34.91 29.035 37.2633 30.0133 40 30Z" fill="#717E8E"/>
</svg>
